<svg width="54" height="50" viewBox="0 0 54 50" fill="none" xmlns="http://www.w3.org/2000/svg">
<path d="M50.1044 12.7349H47.5992V10.7516C47.5992 9.37015 46.4754 8.24635 45.0939 8.24635H14.5094V2.50522C14.5094 2.04478 14.884 1.67015 15.3445 1.67015H38.1002C38.5606 1.67015 38.9353 2.04478 38.9353 2.50522V6.26305C38.9353 6.72422 39.3092 7.09812 39.7704 7.09812C40.2315 7.09812 40.6054 6.72422 40.6054 6.26305V2.50522C40.6054 1.1238 39.4816 0 38.1002 0H15.3445C13.963 0 12.8392 1.1238 12.8392 2.50522V8.24635H8.35073C6.96931 8.24635 5.84551 9.37015 5.84551 10.7516V12.7349H3.34029C1.49843 12.7349 0 14.2333 0 16.0752V42.1712C0 44.013 1.49843 45.5115 3.34029 45.5115H5.84551V47.4948C5.84551 48.8762 6.96931 50 8.35073 50H45.0939C46.4754 50 47.5992 48.8762 47.5992 47.4948V45.5115H50.1044C51.9462 45.5115 53.4447 44.013 53.4447 42.1712V16.0752C53.4447 14.2333 51.9462 12.7349 50.1044 12.7349ZM3.34029 43.8413C2.41942 43.8413 1.67015 43.0922 1.67015 42.1712V16.0752C1.67015 15.1542 2.41942 14.405 3.34029 14.405H5.84551V43.8413H3.34029ZM45.929 47.4948C45.929 47.9552 45.5544 48.3299 45.0939 48.3299H8.35073C7.89029 48.3299 7.51566 47.9552 7.51566 47.4948C7.51566 45.5984 7.51566 13.8262 7.51566 10.7516C7.51566 10.2911 7.89029 9.91649 8.35073 9.91649H45.0939C45.5544 9.91649 45.929 10.2911 45.929 10.7516V47.4948ZM51.7745 42.1712C51.7745 43.0922 51.0253 43.8413 50.1044 43.8413H47.5992V14.405H50.1044C51.0253 14.405 51.7745 15.1542 51.7745 16.0752V42.1712Z" fill="#F5F6FD"/>
</svg>
