<svg width="55" height="50" viewBox="0 0 55 50" fill="none" xmlns="http://www.w3.org/2000/svg">
<path d="M51.5012 17.1032C49.0813 17.1853 48.2383 17.2124 47.9663 17.2202C47.5942 17.0796 46.3566 16.5236 45.3178 16.0403C45.0043 15.8945 44.6335 15.9542 44.3818 16.1911L39.5906 20.6974C39.4206 20.8572 39.3242 21.08 39.3242 21.3133V24.2867L28.7613 25.9684C28.515 26.0076 28.2985 26.1536 28.1698 26.3672L25.0223 31.5942L17.3143 32.2773C16.96 32.3087 16.6633 32.5583 16.5718 32.9019L14.3579 41.2116L7.26081 48.3087H0.845682C0.378654 48.3087 0 48.6873 0 49.1543C0 49.6214 0.378654 50 0.845682 50H51.5866C52.9855 50 54.1237 48.8618 54.1237 47.463V32.8485C54.1237 32.3815 53.745 32.0029 53.278 32.0029C52.8109 32.0029 52.4323 32.3815 52.4323 32.8485V47.463C52.4323 47.9293 52.0529 48.3087 51.5866 48.3087H22.2128L26.1025 42.5981L30.236 41.5156C30.4733 41.4534 30.672 41.2912 30.7804 41.071L33.9237 34.686L36.9399 34.7654C40.0953 39.9193 39.9146 39.7451 40.2663 39.8921L45.6212 42.1314L45.9406 45.0071C45.9922 45.4713 46.4104 45.8051 46.8746 45.7542C47.3387 45.7026 47.6733 45.2845 47.6216 44.8202L47.2471 41.4498C47.2132 41.1444 47.0162 40.8815 46.7329 40.763L41.1711 38.4371L38.1426 33.4904C37.993 33.2461 37.7299 33.0942 37.4435 33.0867L33.4265 32.981C33.0965 32.9736 32.7914 33.1566 32.6455 33.4529L29.4335 39.9774C24.9473 41.1523 25.1223 41.0327 24.8828 41.3843L20.1661 48.3088H9.65272C16.26 41.7016 15.8501 42.1804 15.9337 41.8668L18.0536 33.9099L25.5996 33.2411C25.8687 33.2173 26.1101 33.0664 26.2494 32.835L29.4158 27.577L40.3028 25.8438C40.7134 25.7784 41.0155 25.4243 41.0155 25.0086V21.6791L45.124 17.815C47.5067 18.9146 47.6614 18.9147 47.8538 18.9147C47.8937 18.9147 47.9998 18.9147 51.5585 18.7936C52.0435 18.7783 52.4322 19.1652 52.4322 19.6389V26.2859C52.4322 26.753 52.8108 27.1316 53.2779 27.1316C53.7449 27.1316 54.1235 26.753 54.1235 26.2859V19.6389C54.1237 18.2026 52.9371 17.0539 51.5012 17.1032Z" fill="#F5F6FD"/>
<path d="M53.278 28.7523C52.8109 28.7523 52.4323 29.131 52.4323 29.598V29.7301C52.4323 30.1972 52.8109 30.5758 53.278 30.5758C53.745 30.5758 54.1237 30.1972 54.1237 29.7301V29.598C54.1237 29.131 53.745 28.7523 53.278 28.7523Z" fill="#F5F6FD"/>
<path d="M1.94084 26.1742C2.69995 26.9181 3.91297 26.9027 4.65379 26.1465L17.2474 13.2927C17.9678 13.9985 18.1167 14.2328 18.5523 14.2328C18.7649 14.2328 18.977 14.1523 19.1407 13.9934L29.2582 21.9556C29.5965 22.2219 30.0824 22.1918 30.3851 21.8829L31.6756 20.5658C31.9777 20.2576 31.9991 19.7711 31.7253 19.4375L23.5578 9.48518C23.8734 9.14649 23.8569 8.62396 23.5315 8.30514L17.9999 2.88537C17.6906 2.5822 17.2148 2.56634 16.8853 2.82586L14.7408 0.724762C14.2567 0.250545 13.6178 -0.00199661 12.9393 1.18878e-05C11.6638 0.0130143 11.0995 0.815989 10.1653 1.7695C9.18633 2.76867 9.20271 4.37811 10.202 5.3572L12.3464 7.45819C12.0934 7.79255 12.1214 8.27036 12.4289 8.57153L13.1418 9.26996L0.548109 22.124C-0.192074 22.8795 -0.179706 24.0965 0.575911 24.8366L1.94084 26.1742ZM29.7079 20.1574L20.3322 12.7788L22.3678 10.7013L29.9364 19.9241L29.7079 20.1574ZM21.7438 8.92132L18.5401 12.1912C17.5619 11.2328 15.204 8.9227 14.2167 7.95534L17.4203 4.68541L21.7438 8.92132ZM11.3735 2.95313C12.3701 1.93588 12.4929 1.69613 12.9566 1.69116C13.4251 1.69116 13.3656 1.74518 15.6961 4.02831L13.5246 6.24463L11.3856 4.14914C11.0526 3.82271 11.0471 3.28623 11.3735 2.95313ZM1.75617 23.3076L14.35 10.4538L16.0393 12.1089C2.55164 25.8752 3.43199 25.0296 3.28579 25.0309C3.14182 25.0234 3.24457 25.0835 1.75955 23.6285C1.67012 23.5409 1.66864 23.3971 1.75617 23.3076Z" fill="#F5F6FD"/>
</svg>
