<svg width="113" height="100" viewBox="0 0 113 100" fill="none" xmlns="http://www.w3.org/2000/svg">
<path d="M107.582 41.7564H105.935V36.8105V19.2281C105.935 13.4717 101.252 8.78842 95.4953 8.78842H50.2254L19.6843 0.0623183C19.6755 0.0599007 19.6665 0.0585817 19.6577 0.0561641C19.6487 0.0537465 19.6401 0.0502303 19.6311 0.0480325C19.6126 0.0434172 19.5944 0.0412194 19.5762 0.0372634C19.5478 0.0313294 19.5195 0.0251755 19.4911 0.0205602C19.4654 0.0163844 19.4401 0.013747 19.4144 0.0106701C19.3845 0.00715364 19.3548 0.00407671 19.3252 0.00231848C19.301 0.000999803 19.277 0.000779853 19.2529 0.000340295C19.2221 -9.92633e-05 19.1915 -0.000318985 19.161 0.000999689C19.1384 0.0018788 19.1157 0.00407645 19.0933 0.00583469C19.0619 0.00847203 19.0304 0.0113295 18.9995 0.0159448C18.9784 0.0190217 18.9575 0.0229777 18.9366 0.026714C18.9045 0.0324282 18.8729 0.0385818 18.8414 0.046274C18.8219 0.0511092 18.8028 0.0566037 18.7834 0.0620982C18.7513 0.0713289 18.7197 0.0807795 18.688 0.0917684C18.6702 0.098142 18.6526 0.104955 18.6348 0.111988C18.603 0.124296 18.5713 0.137263 18.5403 0.151548C18.5239 0.15924 18.5078 0.167592 18.4915 0.175724C18.4606 0.191328 18.43 0.207153 18.4001 0.224955C18.3845 0.233966 18.3696 0.243636 18.3542 0.253306C18.3247 0.271768 18.2957 0.290669 18.2676 0.311108C18.2529 0.321657 18.2386 0.333086 18.2241 0.344295C18.197 0.365174 18.1702 0.386492 18.1445 0.409129C18.13 0.421877 18.1162 0.435283 18.1021 0.44847C18.0779 0.471327 18.054 0.494184 18.0311 0.518359C18.0168 0.533524 18.0034 0.549348 17.9896 0.565172C17.9687 0.589128 17.948 0.613304 17.9285 0.638579C17.9144 0.65682 17.9012 0.675502 17.8878 0.694183C17.8704 0.718578 17.8533 0.743193 17.8375 0.768468C17.8239 0.790006 17.8113 0.812424 17.7988 0.834622C17.785 0.859017 17.7711 0.883632 17.7586 0.908906C17.7463 0.933522 17.7353 0.958797 17.7241 0.984071C17.7131 1.00891 17.7023 1.03374 17.6926 1.05924C17.6825 1.08605 17.6737 1.11352 17.6647 1.14121C17.659 1.15902 17.652 1.17572 17.6467 1.19374C17.6441 1.20275 17.643 1.21154 17.6406 1.22033C17.6381 1.22934 17.6346 1.23792 17.6324 1.24693L15.7476 8.78798H10.4406C4.6958 8.78798 0.0206592 13.4524 0.00175823 19.193C0.00153845 19.2048 0 19.2161 0 19.2277V76.3702C0 77.2801 0.740655 78.0186 1.64834 78.0186C2.55823 78.0186 3.29668 77.2801 3.29668 76.3702V26.8305C5.16569 28.5879 7.67864 29.6679 10.4406 29.6679H95.4953C95.4973 29.6679 95.499 29.6676 95.501 29.6676C99.4368 29.6707 102.638 32.8738 102.638 36.8107V48.35H84.5037C84.5026 48.35 84.5017 48.3502 84.5006 48.3502C84.4529 48.3502 84.4055 48.353 84.3582 48.3572C84.3057 48.3618 84.2538 48.3693 84.2028 48.3787C84.1951 48.3801 84.1877 48.3807 84.18 48.3823C84.1369 48.3908 84.0947 48.4023 84.0527 48.4141C84.0435 48.4168 84.034 48.4185 84.025 48.4214C83.9877 48.4328 83.9514 48.4464 83.9151 48.4603C83.9013 48.4656 83.8872 48.47 83.8734 48.4757C83.843 48.4882 83.8138 48.5029 83.7846 48.5172C83.7652 48.5264 83.7457 48.535 83.7268 48.5449C83.7039 48.557 83.6824 48.5708 83.6604 48.584C83.636 48.5985 83.6112 48.6126 83.5874 48.6284C83.5714 48.639 83.5567 48.6511 83.5413 48.6623C83.5132 48.6825 83.4848 48.7025 83.458 48.7247C83.4463 48.7344 83.4356 48.7451 83.4244 48.755C83.3956 48.7801 83.3668 48.8049 83.3395 48.8322C83.3235 48.8482 83.309 48.8658 83.2938 48.8825C83.2725 48.9056 83.2505 48.9282 83.2303 48.9528C83.1962 48.9944 83.1644 49.0374 83.1345 49.082C83.1338 49.0827 83.1332 49.0836 83.1327 49.0845L74.342 62.2714C74.2807 62.3633 74.2288 62.4606 74.1877 62.562C74.1721 62.5998 74.1596 62.6382 74.1471 62.6765C74.1433 62.6881 74.1385 62.6993 74.135 62.711C74.1227 62.7516 74.1132 62.7927 74.1042 62.8336C74.1018 62.8444 74.0987 62.8549 74.0965 62.8657C74.0892 62.9026 74.0844 62.9398 74.0798 62.9769C74.0778 62.9927 74.0748 63.0086 74.0732 63.0246C74.0701 63.0552 74.0695 63.0855 74.0684 63.116C74.0673 63.1393 74.0653 63.1626 74.0653 63.1861C74.0653 63.2088 74.0673 63.2314 74.0682 63.2541C74.0693 63.2853 74.0701 63.3167 74.0732 63.3479C74.0748 63.3631 74.0776 63.3782 74.0796 63.3934C74.0844 63.4312 74.0893 63.469 74.0967 63.5066C74.0987 63.5169 74.1018 63.527 74.1042 63.5373C74.1132 63.5787 74.1229 63.62 74.1352 63.6611C74.1387 63.6727 74.1435 63.6839 74.1473 63.6958C74.1598 63.734 74.1723 63.7725 74.1879 63.8103C74.2293 63.9114 74.2811 64.009 74.3427 64.1011L83.1332 77.2861C83.1336 77.2867 83.134 77.2872 83.1345 77.2878C83.1699 77.3403 83.2085 77.3904 83.2494 77.4386C83.2628 77.4544 83.2771 77.4691 83.291 77.4841C83.3189 77.5146 83.3479 77.5441 83.378 77.5724C83.3958 77.5891 83.4134 77.6054 83.4314 77.621C83.4635 77.6485 83.4967 77.6742 83.5307 77.6992C83.5461 77.7104 83.5608 77.7228 83.5765 77.7333C83.6259 77.7669 83.6771 77.7979 83.7301 77.8261C83.7435 77.8331 83.7573 77.839 83.7707 77.8456C83.8129 77.8667 83.856 77.8863 83.9002 77.9036C83.9173 77.9105 83.9345 77.9166 83.9518 77.9228C83.9938 77.9377 84.0365 77.9509 84.08 77.9625C84.0978 77.9672 84.1153 77.972 84.1334 77.9764C84.178 77.9867 84.2233 77.9946 84.2692 78.0012C84.2859 78.0036 84.3024 78.0069 84.3191 78.0089C84.3758 78.0153 84.4334 78.0188 84.4918 78.0192C84.4965 78.0192 84.5011 78.0201 84.5059 78.0201C84.5068 78.0201 84.5079 78.0199 84.509 78.0199H102.639V89.5601C102.639 93.4989 99.4344 96.7033 95.4959 96.7033H10.4415C6.50304 96.7033 3.29866 93.4989 3.29866 89.5601C3.29866 89.5515 3.29756 89.5431 3.29734 89.5346V82.9645C3.29734 82.0568 2.55889 81.3161 1.649 81.3161C0.741314 81.3161 0.000659337 82.0568 0.000659337 82.9645V89.5601C0.000659337 89.5772 0.00263735 89.5939 0.00329668 89.6108C0.0307691 95.344 4.70217 100 10.4415 100H95.4959C101.252 100 105.935 95.3176 105.935 89.5618C105.935 89.5616 105.935 89.5614 105.935 89.5609V78.0199H107.583C110.309 78.0199 112.527 75.8019 112.527 73.0758V46.7005C112.526 43.9744 110.308 41.7564 107.582 41.7564ZM20.4175 3.70032L49.5028 12.0108C49.5041 12.0113 49.5057 12.0115 49.507 12.0119L69.0005 17.5816H16.948L20.4175 3.70032ZM102.638 29.2074C100.769 27.4505 98.2566 26.3707 95.4953 26.3707C95.4924 26.3707 95.4898 26.3712 95.4867 26.3712H10.4406C6.50194 26.3712 3.29756 23.1668 3.29756 19.2281C3.29756 15.2895 6.50194 12.0851 10.4406 12.0851H14.9237L13.55 17.5816H10.441C9.53072 17.5816 8.7927 18.3196 8.7927 19.2299C8.7927 20.1402 9.53072 20.8782 10.441 20.8782H14.8313C14.8335 20.8782 14.836 20.8787 14.8384 20.8787C14.8401 20.8787 14.8419 20.8782 14.8434 20.8782H80.7642C80.7664 20.8782 80.7683 20.8787 80.7703 20.8787C80.7721 20.8787 80.7738 20.8782 80.7756 20.8782H93.2955C94.2058 20.8782 94.9439 20.1402 94.9439 19.2299C94.9439 18.3196 94.2058 17.5816 93.2955 17.5816H81.0004L61.7634 12.0851H95.4951C99.4335 12.0851 102.638 15.2895 102.638 19.2281V29.2074ZM109.23 73.0749C109.23 73.9832 108.491 74.7223 107.582 74.7223H85.3859L77.6938 63.1853L85.3859 51.6464H107.582C107.605 51.6464 107.628 51.6438 107.651 51.6429C108.204 51.6352 108.735 51.5368 109.23 51.3614V73.0749ZM107.582 48.348C107.571 48.348 107.56 48.3495 107.548 48.3497H105.935V45.0531H107.582C108.491 45.0531 109.23 45.7922 109.23 46.7005C109.23 47.6089 108.491 48.348 107.582 48.348Z" fill="#F5F6FD"/>
<path d="M91.0982 57.1411C87.7655 57.1411 85.0543 59.8525 85.0543 63.1852C85.0543 66.518 87.7655 69.2292 91.0982 69.2292C94.4309 69.2292 97.1421 66.518 97.1421 63.1852C97.1421 59.8525 94.4309 57.1411 91.0982 57.1411ZM91.0982 65.9325C89.5832 65.9325 88.3509 64.7002 88.3509 63.1852C88.3509 61.6703 89.5832 60.4378 91.0982 60.4378C92.6131 60.4378 93.8454 61.6703 93.8454 63.1852C93.8454 64.7002 92.6131 65.9325 91.0982 65.9325Z" fill="#F5F6FD"/>
</svg>
