<svg width="55" height="28" viewBox="0 0 55 28" fill="none" xmlns="http://www.w3.org/2000/svg">
<path d="M54.3023 14.5814C53.8607 14.521 53.4542 14.8302 53.394 15.2716C53.0047 18.1225 51.5938 20.7451 49.4211 22.6561C47.2288 24.5842 44.4119 25.646 41.4889 25.646C39.8985 25.646 38.3538 25.3405 36.8976 24.7379C36.8734 24.7279 36.8455 24.7181 36.8203 24.7105C36.8033 24.7053 35.0848 24.1686 32.5262 22.1374C32.1771 21.8604 31.6698 21.9188 31.3927 22.2677C31.1158 22.6167 31.1741 23.1241 31.523 23.4011C34.148 25.4847 35.9922 26.1384 36.3137 26.2423C37.9567 26.9171 39.6976 27.2594 41.4889 27.2594C44.8042 27.2594 47.9997 26.0548 50.4866 23.8676C52.9505 21.7005 54.5507 18.7253 54.9925 15.49C55.0527 15.0483 54.7437 14.6416 54.3023 14.5814Z" fill="#F5F6FD"/>
<path d="M34.8875 19.2134C36.5996 20.7397 38.7289 22.2999 41.5429 22.2998H41.5457C46.3245 22.2979 50.2123 18.4086 50.2123 13.6297C50.2123 8.84897 46.323 4.95966 41.5424 4.95966C41.5421 4.95966 41.5424 4.95966 41.5422 4.95966C38.2461 4.95966 35.9991 6.8737 34.41 8.5411C32.0847 10.9811 26.8114 17.2376 26.6198 17.4801C21.564 23.8789 18.5612 24.6494 18.3969 24.6871C18.3283 24.696 18.2865 24.7105 18.221 24.7377C16.9221 25.2752 15.5466 25.5773 14.1332 25.6354L13.6215 25.6457C10.3985 25.6436 7.37293 24.3828 5.10182 22.095C2.829 19.8055 1.59021 16.7672 1.61384 13.5396C1.63716 10.3394 2.91655 7.33218 5.21623 5.07192C7.48841 2.83862 10.472 1.61326 13.6305 1.61326C13.6708 1.61326 13.7117 1.61348 13.7521 1.6138C15.2467 1.62873 16.7024 1.91458 18.0792 2.46372C18.1642 2.49756 18.2492 2.53086 18.3349 2.56298C18.7548 2.72003 22.4563 4.21512 26.6229 9.50413C26.6229 9.50413 24.8327 11.6905 24.4187 12.182C23.6065 11.2972 22.0762 9.69051 20.2312 8.04578C18.5191 6.51953 16.3899 4.95945 13.576 4.95945C13.5751 4.95945 13.5738 4.95945 13.5731 4.95945C13.2854 4.95945 12.9948 4.97384 12.7096 5.0022C12.2663 5.04635 11.9426 5.44134 11.9867 5.88467C12.0307 6.328 12.4267 6.65123 12.8692 6.60762C13.1017 6.58452 13.3386 6.5727 13.5735 6.5727H13.5765C14.8518 6.5727 16.5124 6.89175 19.1576 9.24987C21.0381 10.9264 22.6138 12.5984 23.3612 13.4175C22.1797 14.7767 20.9147 16.1631 19.5407 17.6048C17.5099 19.7357 15.6704 20.6861 13.5762 20.6861C9.68518 20.6861 6.51947 17.5204 6.51947 13.6293C6.51947 11.264 7.69616 9.06736 9.66714 7.75316C10.0378 7.50598 10.138 7.00518 9.89079 6.63447C9.64372 6.26387 9.14292 6.16375 8.7721 6.41082C6.35135 8.02526 4.9061 10.7238 4.9061 13.6297C4.9061 18.4102 8.79541 22.2997 13.5761 22.2998C16.8725 22.2998 19.1194 20.3857 20.7085 18.7182C23.0337 16.2782 28.6422 9.59802 28.6422 9.59802C28.6456 9.59394 28.649 9.58975 28.6523 9.58567C33.6155 3.36391 36.5593 2.60938 36.7216 2.57211C36.7901 2.5633 36.8318 2.54869 36.8974 2.52151C38.1964 1.98398 39.5717 1.68191 40.9853 1.62368L41.4967 1.61337C44.3755 1.61531 47.1591 2.65053 49.3356 4.5289C51.492 6.38987 52.921 8.95542 53.3595 11.753C53.4284 12.1931 53.8412 12.4937 54.2814 12.425C54.7215 12.356 55.0224 11.9432 54.9534 11.5031C54.4557 8.32851 52.835 5.41803 50.3897 3.30762C47.9184 1.17477 44.7574 0.000113675 41.4889 0.000113675C41.4835 0.000113675 41.478 0.000112796 41.4725 0.000220218L40.9443 0.0108549C40.9389 0.0109623 40.9334 0.0110702 40.9279 0.0113925C39.3482 0.0754158 37.81 0.408101 36.3545 1.00042C35.6796 1.15081 32.6148 2.13963 27.6716 8.23108C23.4194 2.93767 19.6428 1.32989 18.8998 1.05209C18.8248 1.02406 18.7504 0.994838 18.6764 0.965297C17.114 0.342144 15.4626 0.017623 13.768 0.000757851C10.1303 -0.0372694 6.69435 1.35696 4.08519 3.92143C1.47763 6.48451 0.0269052 9.89622 0.000372021 13.5281C-0.0262685 17.1889 1.3787 20.6349 3.95671 23.2319C6.53494 25.829 9.97017 27.2593 13.6296 27.2593C13.635 27.2593 13.6404 27.2593 13.6459 27.2592L14.1741 27.2486C14.1796 27.2485 14.1851 27.2484 14.1906 27.248C15.7702 27.184 17.3085 26.8513 18.7638 26.259C19.4306 26.1107 22.4214 25.1463 27.2461 19.274C27.7072 19.8008 28.1749 20.308 28.6428 20.7869C28.9541 21.1056 29.4648 21.1116 29.7836 20.8004C30.1023 20.4891 30.1083 19.9784 29.797 19.6597C29.2891 19.1397 28.7807 18.585 28.2813 18.0063C28.7049 17.4951 30.2856 15.5686 30.6999 15.0768C31.5117 15.9615 33.0426 17.5687 34.8875 19.2134ZM35.5779 9.6542C37.6087 7.52317 39.4482 6.57292 41.5424 6.57303C45.4334 6.57303 48.5991 9.73864 48.5991 13.6298C48.5991 17.5194 45.4347 20.685 41.545 20.6865C41.5441 20.6865 41.5432 20.6865 41.5422 20.6865C40.2669 20.6865 38.6062 20.3675 35.9609 18.0092C34.0801 16.3324 32.5043 14.66 31.7572 13.8411C32.9386 12.4822 34.2041 11.0957 35.5779 9.6542Z" fill="#F5F6FD"/>
</svg>
