<svg width="102" height="100" viewBox="0 0 102 100" fill="none" xmlns="http://www.w3.org/2000/svg">
<path d="M49.2043 16.4614L51.6146 17.8533C50.135 22.1593 49.7786 26.7717 50.5789 31.254C51.3793 35.7363 53.3101 39.9402 56.1885 43.4681C56.4035 43.7297 56.693 43.9196 57.0186 44.0126C57.3441 44.1056 57.6903 44.0972 58.011 43.9886C58.3317 43.88 58.6117 43.6764 58.8138 43.4047C59.0159 43.1331 59.1304 42.8063 59.1422 42.468C59.3768 36.3023 60.7914 30.2387 63.3094 24.6058L92.5113 41.4645C93.2716 41.9028 94.1341 42.1328 95.0116 42.1312C95.451 42.1326 95.8886 42.0766 96.3134 41.9646C97.2707 41.7099 98.1308 41.1767 98.7846 40.4325C99.4384 39.6883 99.8565 38.7667 99.9858 37.7846C100.115 36.8025 99.9497 35.8042 99.5108 34.9161C99.0718 34.0281 98.379 33.2905 97.5203 32.7968L87.6491 27.0977C87.4594 26.9866 87.2497 26.914 87.0319 26.8842C86.8141 26.8544 86.5925 26.868 86.38 26.9242C86.1675 26.9804 85.9682 27.0781 85.7935 27.2116C85.6189 27.3451 85.4724 27.5119 85.3625 27.7023C85.2526 27.8926 85.1814 28.1029 85.1531 28.3209C85.1247 28.5389 85.1398 28.7603 85.1974 28.9725C85.255 29.1846 85.354 29.3833 85.4887 29.557C85.6234 29.7307 85.7911 29.8761 85.9822 29.9848L95.8451 35.6905C96.2279 35.9115 96.5072 36.2756 96.6217 36.7026C96.7361 37.1296 96.6762 37.5846 96.4551 37.9674C96.3468 38.1578 96.2014 38.3245 96.0277 38.4579C95.8539 38.5913 95.6552 38.6886 95.4433 38.7442C95.0167 38.8582 94.5623 38.7982 94.1799 38.5775L64.7829 21.6054C65.043 21.1153 65.293 20.6186 65.5714 20.1369C65.8497 19.6552 66.1548 19.1901 66.4481 18.72L80.1981 26.6577C80.5808 26.8752 81.0339 26.9326 81.4587 26.8173C81.8835 26.702 82.2455 26.4233 82.4655 26.0421C82.6856 25.6609 82.746 25.2081 82.6335 24.7826C82.521 24.357 82.2447 23.9933 81.865 23.7707L68.315 15.9464C71.9319 10.9476 76.4746 6.68948 81.6967 3.40317C81.9834 3.22355 82.2088 2.96091 82.3427 2.65015C82.4766 2.33939 82.5128 1.99523 82.4464 1.66342C82.38 1.33161 82.2142 1.02786 81.971 0.792562C81.7278 0.557262 81.4187 0.401551 81.0849 0.346127C76.5905 -0.384006 71.9841 0.0452754 67.702 1.59331C63.4199 3.14135 59.6038 5.75689 56.6153 9.19221L54.205 7.80037C53.6358 7.47203 53.0076 7.259 52.3561 7.17344C51.7047 7.08789 51.0427 7.13149 50.4081 7.30175C49.7735 7.47201 49.1787 7.7656 48.6575 8.16576C48.1364 8.56591 47.6991 9.0648 47.3708 9.63393C47.0424 10.2031 46.8294 10.8313 46.7439 11.4828C46.6583 12.1342 46.7019 12.7961 46.8722 13.4308C47.0424 14.0654 47.336 14.6602 47.7362 15.1814C48.1363 15.7025 48.6352 16.1398 49.2043 16.4681V16.4614ZM75.9543 3.33816C70.5797 7.46111 66.0702 12.6026 62.6833 18.4689C59.2964 24.3352 57.0985 30.8114 56.2152 37.5273C54.3468 34.0434 53.3987 30.1401 53.4607 26.1872C53.5226 22.2344 54.5926 18.3627 56.5693 14.939C58.546 11.5153 61.3639 8.65286 64.7562 6.62275C68.1485 4.59264 72.0029 3.46209 75.9543 3.33816ZM50.2611 11.2975C50.4822 10.9146 50.8463 10.6353 51.2733 10.5209C51.7003 10.4065 52.1552 10.4664 52.5381 10.6874L54.5717 11.8542C54.2633 12.3159 53.9599 12.781 53.6816 13.266C53.4032 13.7511 53.1498 14.2445 52.9048 14.7412L50.8712 13.5744C50.4888 13.3534 50.2098 12.9896 50.0954 12.563C49.981 12.1364 50.0406 11.6818 50.2611 11.2991V11.2975Z" fill="#F5F6FD"/>
<path d="M31.0505 21.5386L39.3848 24.8723C39.7955 25.0368 40.2547 25.0314 40.6614 24.8573C41.0681 24.6831 41.389 24.3546 41.5534 23.9439C41.7179 23.5332 41.7124 23.074 41.5383 22.6673C41.3642 22.2606 41.0357 21.9398 40.625 21.7753L32.2906 18.4416C32.0873 18.3601 31.8698 18.3195 31.6508 18.3221C31.4318 18.3247 31.2154 18.3704 31.014 18.4566C30.8126 18.5429 30.6302 18.6679 30.4772 18.8246C30.3241 18.9813 30.2034 19.1666 30.122 19.37C30.0406 19.5734 30 19.7908 30.0026 20.0098C30.0052 20.2288 30.0509 20.4452 30.1371 20.6466C30.3112 21.0533 30.6398 21.3741 31.0505 21.5386Z" fill="#F5F6FD"/>
<path d="M43.827 19.5017C44.1414 19.8053 44.5625 19.9733 44.9995 19.9695C45.4365 19.9657 45.8546 19.7904 46.1637 19.4814C46.4727 19.1723 46.648 18.7543 46.6518 18.3172C46.6556 17.8802 46.4876 17.4591 46.184 17.1447L37.8496 8.81039C37.6959 8.65119 37.5119 8.5242 37.3086 8.43684C37.1052 8.34948 36.8865 8.3035 36.6651 8.30158C36.4438 8.29965 36.2243 8.34183 36.0195 8.42564C35.8146 8.50945 35.6285 8.63322 35.472 8.78973C35.3155 8.94624 35.1917 9.13235 35.1079 9.3372C35.0241 9.54205 34.9819 9.76154 34.9839 9.98287C34.9858 10.2042 35.0318 10.4229 35.1191 10.6263C35.2065 10.8297 35.3335 11.0136 35.4927 11.1673L43.827 19.5017Z" fill="#F5F6FD"/>
<path d="M28.3368 31.6582H38.338C38.7801 31.6582 39.2041 31.4826 39.5167 31.17C39.8293 30.8574 40.0049 30.4334 40.0049 29.9913C40.0049 29.5493 39.8293 29.1253 39.5167 28.8127C39.2041 28.5001 38.7801 28.3245 38.338 28.3245H28.3368C27.8947 28.3245 27.4707 28.5001 27.1581 28.8127C26.8455 29.1253 26.6699 29.5493 26.6699 29.9913C26.6699 30.4334 26.8455 30.8574 27.1581 31.17C27.4707 31.4826 27.8947 31.6582 28.3368 31.6582Z" fill="#F5F6FD"/>
<path d="M51.673 86.665C52.5936 86.665 53.3399 85.9188 53.3399 84.9982C53.3399 84.0776 52.5936 83.3313 51.673 83.3313C50.7524 83.3313 50.0061 84.0776 50.0061 84.9982C50.0061 85.9188 50.7524 86.665 51.673 86.665Z" fill="#F5F6FD"/>
<path d="M58.3405 86.665C59.2611 86.665 60.0074 85.9188 60.0074 84.9982C60.0074 84.0776 59.2611 83.3313 58.3405 83.3313C57.4199 83.3313 56.6736 84.0776 56.6736 84.9982C56.6736 85.9188 57.4199 86.665 58.3405 86.665Z" fill="#F5F6FD"/>
<path d="M65.008 86.665C65.9286 86.665 66.6748 85.9188 66.6748 84.9982C66.6748 84.0776 65.9286 83.3313 65.008 83.3313C64.0874 83.3313 63.3411 84.0776 63.3411 84.9982C63.3411 85.9188 64.0874 86.665 65.008 86.665Z" fill="#F5F6FD"/>
<path d="M43.3387 83.3313H33.3374C32.8954 83.3313 32.4714 83.5069 32.1588 83.8195C31.8462 84.1321 31.6706 84.5561 31.6706 84.9982C31.6706 85.4403 31.8462 85.8642 32.1588 86.1768C32.4714 86.4894 32.8954 86.665 33.3374 86.665H43.3387C43.7807 86.665 44.2047 86.4894 44.5173 86.1768C44.8299 85.8642 45.0055 85.4403 45.0055 84.9982C45.0055 84.5561 44.8299 84.1321 44.5173 83.8195C44.2047 83.5069 43.7807 83.3313 43.3387 83.3313Z" fill="#F5F6FD"/>
<path d="M51.673 73.3301C52.5936 73.3301 53.3399 72.5838 53.3399 71.6632C53.3399 70.7426 52.5936 69.9963 51.673 69.9963C50.7524 69.9963 50.0061 70.7426 50.0061 71.6632C50.0061 72.5838 50.7524 73.3301 51.673 73.3301Z" fill="#F5F6FD"/>
<path d="M58.3405 73.3301C59.2611 73.3301 60.0074 72.5838 60.0074 71.6632C60.0074 70.7426 59.2611 69.9963 58.3405 69.9963C57.4199 69.9963 56.6736 70.7426 56.6736 71.6632C56.6736 72.5838 57.4199 73.3301 58.3405 73.3301Z" fill="#F5F6FD"/>
<path d="M65.008 73.3301C65.9286 73.3301 66.6748 72.5838 66.6748 71.6632C66.6748 70.7426 65.9286 69.9963 65.008 69.9963C64.0874 69.9963 63.3411 70.7426 63.3411 71.6632C63.3411 72.5838 64.0874 73.3301 65.008 73.3301Z" fill="#F5F6FD"/>
<path d="M43.3387 69.9963H33.3374C32.8954 69.9963 32.4714 70.172 32.1588 70.4846C31.8462 70.7972 31.6706 71.2211 31.6706 71.6632C31.6706 72.1053 31.8462 72.5293 32.1588 72.8419C32.4714 73.1545 32.8954 73.3301 33.3374 73.3301H43.3387C43.7807 73.3301 44.2047 73.1545 44.5173 72.8419C44.8299 72.5293 45.0055 72.1053 45.0055 71.6632C45.0055 71.2211 44.8299 70.7972 44.5173 70.4846C44.2047 70.172 43.7807 69.9963 43.3387 69.9963Z" fill="#F5F6FD"/>
<path d="M51.673 59.9951C52.5936 59.9951 53.3399 59.2488 53.3399 58.3282C53.3399 57.4077 52.5936 56.6614 51.673 56.6614C50.7524 56.6614 50.0061 57.4077 50.0061 58.3282C50.0061 59.2488 50.7524 59.9951 51.673 59.9951Z" fill="#F5F6FD"/>
<path d="M58.3405 59.9951C59.2611 59.9951 60.0074 59.2488 60.0074 58.3282C60.0074 57.4077 59.2611 56.6614 58.3405 56.6614C57.4199 56.6614 56.6736 57.4077 56.6736 58.3282C56.6736 59.2488 57.4199 59.9951 58.3405 59.9951Z" fill="#F5F6FD"/>
<path d="M65.008 59.9951C65.9286 59.9951 66.6748 59.2488 66.6748 58.3282C66.6748 57.4077 65.9286 56.6614 65.008 56.6614C64.0874 56.6614 63.3411 57.4077 63.3411 58.3282C63.3411 59.2488 64.0874 59.9951 65.008 59.9951Z" fill="#F5F6FD"/>
<path d="M33.3374 59.9951H43.3387C43.7807 59.9951 44.2047 59.8195 44.5173 59.5069C44.8299 59.1943 45.0055 58.7703 45.0055 58.3282C45.0055 57.8862 44.8299 57.4622 44.5173 57.1496C44.2047 56.837 43.7807 56.6614 43.3387 56.6614H33.3374C32.8954 56.6614 32.4714 56.837 32.1588 57.1496C31.8462 57.4622 31.6706 57.8862 31.6706 58.3282C31.6706 58.7703 31.8462 59.1943 32.1588 59.5069C32.4714 59.8195 32.8954 59.9951 33.3374 59.9951Z" fill="#F5F6FD"/>
<path d="M76.6761 89.9988H75.0092V38.3258C75.0092 37.8837 74.8336 37.4597 74.521 37.1471C74.2084 36.8346 73.7844 36.6589 73.3423 36.6589H65.008C64.5659 36.6589 64.1419 36.8346 63.8293 37.1471C63.5167 37.4597 63.3411 37.8837 63.3411 38.3258C63.3411 38.7679 63.5167 39.1919 63.8293 39.5045C64.1419 39.8171 64.5659 39.9927 65.008 39.9927H71.6754V49.9939H28.3368V39.9927H46.6724C47.1145 39.9927 47.5384 39.8171 47.851 39.5045C48.1636 39.1919 48.3392 38.7679 48.3392 38.3258C48.3392 37.8837 48.1636 37.4597 47.851 37.1471C47.5384 36.8346 47.1145 36.6589 46.6724 36.6589H26.6699C26.2278 36.6589 25.8039 36.8346 25.4913 37.1471C25.1787 37.4597 25.0031 37.8837 25.0031 38.3258V89.9988H23.3362C22.0099 89.9988 20.738 90.5257 19.8002 91.4635C18.8624 92.4012 18.3356 93.6732 18.3356 94.9994V98.3332C18.3356 98.7752 18.5112 99.1992 18.8238 99.5118C19.1364 99.8244 19.5604 100 20.0024 100H80.0098C80.4519 100 80.8759 99.8244 81.1884 99.5118C81.501 99.1992 81.6767 98.7752 81.6767 98.3332V94.9994C81.6767 93.6732 81.1498 92.4012 80.212 91.4635C79.2742 90.5257 78.0023 89.9988 76.6761 89.9988ZM71.6754 53.3276V63.3289H28.3368V53.3276H71.6754ZM28.3368 79.9976H51.673C52.1151 79.9976 52.539 79.822 52.8516 79.5094C53.1642 79.1968 53.3399 78.7728 53.3399 78.3307C53.3399 77.8886 53.1642 77.4646 52.8516 77.1521C52.539 76.8395 52.1151 76.6638 51.673 76.6638H28.3368V66.6626H71.6754V76.6638H58.3405C57.8984 76.6638 57.4744 76.8395 57.1618 77.1521C56.8492 77.4646 56.6736 77.8886 56.6736 78.3307C56.6736 78.7728 56.8492 79.1968 57.1618 79.5094C57.4744 79.822 57.8984 79.9976 58.3405 79.9976H71.6754V89.9988H28.3368V79.9976ZM78.3429 96.6663H21.6693V94.9994C21.6693 94.5573 21.8449 94.1334 22.1575 93.8208C22.4701 93.5082 22.8941 93.3325 23.3362 93.3325H76.6761C77.1181 93.3325 77.5421 93.5082 77.8547 93.8208C78.1673 94.1334 78.3429 94.5573 78.3429 94.9994V96.6663Z" fill="#F5F6FD"/>
<path d="M51.673 46.6602C52.5936 46.6602 53.3399 45.9139 53.3399 44.9933C53.3399 44.0727 52.5936 43.3264 51.673 43.3264C50.7524 43.3264 50.0061 44.0727 50.0061 44.9933C50.0061 45.9139 50.7524 46.6602 51.673 46.6602Z" fill="#F5F6FD"/>
<path d="M65.008 46.6602C65.9286 46.6602 66.6748 45.9139 66.6748 44.9933C66.6748 44.0727 65.9286 43.3264 65.008 43.3264C64.0874 43.3264 63.3411 44.0727 63.3411 44.9933C63.3411 45.9139 64.0874 46.6602 65.008 46.6602Z" fill="#F5F6FD"/>
<path d="M33.3374 43.3264C32.8954 43.3264 32.4714 43.502 32.1588 43.8146C31.8462 44.1272 31.6706 44.5512 31.6706 44.9933C31.6706 45.4354 31.8462 45.8593 32.1588 46.1719C32.4714 46.4845 32.8954 46.6602 33.3374 46.6602H43.3387C43.7807 46.6602 44.2047 46.4845 44.5173 46.1719C44.8299 45.8593 45.0055 45.4354 45.0055 44.9933C45.0055 44.5512 44.8299 44.1272 44.5173 43.8146C44.2047 43.502 43.7807 43.3264 43.3387 43.3264H33.3374Z" fill="#F5F6FD"/>
<path d="M80.0098 79.9976C80.9304 79.9976 81.6767 79.2513 81.6767 78.3307C81.6767 77.4101 80.9304 76.6638 80.0098 76.6638C79.0892 76.6638 78.3429 77.4101 78.3429 78.3307C78.3429 79.2513 79.0892 79.9976 80.0098 79.9976Z" fill="#F5F6FD"/>
<path d="M86.6773 79.9976C87.5979 79.9976 88.3441 79.2513 88.3441 78.3307C88.3441 77.4101 87.5979 76.6638 86.6773 76.6638C85.7567 76.6638 85.0104 77.4101 85.0104 78.3307C85.0104 79.2513 85.7567 79.9976 86.6773 79.9976Z" fill="#F5F6FD"/>
<path d="M80.0098 66.6626C80.9304 66.6626 81.6767 65.9163 81.6767 64.9957C81.6767 64.0751 80.9304 63.3289 80.0098 63.3289C79.0892 63.3289 78.3429 64.0751 78.3429 64.9957C78.3429 65.9163 79.0892 66.6626 80.0098 66.6626Z" fill="#F5F6FD"/>
<path d="M86.6773 66.6626C87.5979 66.6626 88.3441 65.9163 88.3441 64.9957C88.3441 64.0751 87.5979 63.3289 86.6773 63.3289C85.7567 63.3289 85.0104 64.0751 85.0104 64.9957C85.0104 65.9163 85.7567 66.6626 86.6773 66.6626Z" fill="#F5F6FD"/>
<path d="M80.0098 53.3276C80.9304 53.3276 81.6767 52.5814 81.6767 51.6608C81.6767 50.7402 80.9304 49.9939 80.0098 49.9939C79.0892 49.9939 78.3429 50.7402 78.3429 51.6608C78.3429 52.5814 79.0892 53.3276 80.0098 53.3276Z" fill="#F5F6FD"/>
<path d="M86.6773 53.3276C87.5979 53.3276 88.3441 52.5814 88.3441 51.6608C88.3441 50.7402 87.5979 49.9939 86.6773 49.9939C85.7567 49.9939 85.0104 50.7402 85.0104 51.6608C85.0104 52.5814 85.7567 53.3276 86.6773 53.3276Z" fill="#F5F6FD"/>
<path d="M96.6785 83.3313H95.0116V44.9933C95.0116 44.5512 94.836 44.1272 94.5234 43.8146C94.2108 43.502 93.7868 43.3264 93.3448 43.3264H80.0098C79.5677 43.3264 79.1437 43.502 78.8311 43.8146C78.5185 44.1272 78.3429 44.5512 78.3429 44.9933C78.3429 45.4354 78.5185 45.8593 78.8311 46.1719C79.1437 46.4845 79.5677 46.6602 80.0098 46.6602H91.6779V56.6614H80.0098C79.5677 56.6614 79.1437 56.837 78.8311 57.1496C78.5185 57.4622 78.3429 57.8862 78.3429 58.3283C78.3429 58.7703 78.5185 59.1943 78.8311 59.5069C79.1437 59.8195 79.5677 59.9951 80.0098 59.9951H91.6779V69.9963H80.0098C79.5677 69.9963 79.1437 70.172 78.8311 70.4846C78.5185 70.7972 78.3429 71.2211 78.3429 71.6632C78.3429 72.1053 78.5185 72.5293 78.8311 72.8419C79.1437 73.1545 79.5677 73.3301 80.0098 73.3301H91.6779V83.3313H80.0098C79.5677 83.3313 79.1437 83.5069 78.8311 83.8195C78.5185 84.1321 78.3429 84.5561 78.3429 84.9982C78.3429 85.4403 78.5185 85.8642 78.8311 86.1768C79.1437 86.4894 79.5677 86.6651 80.0098 86.6651H96.6785C97.1206 86.6651 97.5446 86.8407 97.8572 87.1533C98.1698 87.4659 98.3454 87.8898 98.3454 88.3319V89.9988H85.0104C84.5683 89.9988 84.1444 90.1744 83.8318 90.487C83.5192 90.7996 83.3435 91.2236 83.3435 91.6657C83.3435 92.1077 83.5192 92.5317 83.8318 92.8443C84.1444 93.1569 84.5683 93.3325 85.0104 93.3325H100.012C100.454 93.3325 100.878 93.1569 101.191 92.8443C101.504 92.5317 101.679 92.1077 101.679 91.6657V88.3319C101.679 87.0057 101.152 85.7338 100.214 84.796C99.2767 83.8582 98.0047 83.3313 96.6785 83.3313Z" fill="#F5F6FD"/>
<path d="M20.0024 76.6638H15.0018C14.5598 76.6638 14.1358 76.8394 13.8232 77.152C13.5106 77.4646 13.335 77.8886 13.335 78.3307C13.335 78.7728 13.5106 79.1967 13.8232 79.5093C14.1358 79.8219 14.5598 79.9976 15.0018 79.9976H20.0024C20.4445 79.9976 20.8685 79.8219 21.1811 79.5093C21.4937 79.1967 21.6693 78.7728 21.6693 78.3307C21.6693 77.8886 21.4937 77.4646 21.1811 77.152C20.8685 76.8394 20.4445 76.6638 20.0024 76.6638Z" fill="#F5F6FD"/>
<path d="M20.0024 63.3289H15.0018C14.5598 63.3289 14.1358 63.5045 13.8232 63.8171C13.5106 64.1297 13.335 64.5536 13.335 64.9957C13.335 65.4378 13.5106 65.8618 13.8232 66.1744C14.1358 66.487 14.5598 66.6626 15.0018 66.6626H20.0024C20.4445 66.6626 20.8685 66.487 21.1811 66.1744C21.4937 65.8618 21.6693 65.4378 21.6693 64.9957C21.6693 64.5536 21.4937 64.1297 21.1811 63.8171C20.8685 63.5045 20.4445 63.3289 20.0024 63.3289Z" fill="#F5F6FD"/>
<path d="M20.0024 49.9939H15.0018C14.5598 49.9939 14.1358 50.1695 13.8232 50.4821C13.5106 50.7947 13.335 51.2187 13.335 51.6608C13.335 52.1028 13.5106 52.5268 13.8232 52.8394C14.1358 53.152 14.5598 53.3276 15.0018 53.3276H20.0024C20.4445 53.3276 20.8685 53.152 21.1811 52.8394C21.4937 52.5268 21.6693 52.1028 21.6693 51.6608C21.6693 51.2187 21.4937 50.7947 21.1811 50.4821C20.8685 50.1695 20.4445 49.9939 20.0024 49.9939Z" fill="#F5F6FD"/>
<path d="M15.0018 89.9988H3.33374V88.3319C3.33374 87.8898 3.50936 87.4659 3.82196 87.1533C4.13456 86.8407 4.55853 86.6651 5.00061 86.6651H20.0024C20.4445 86.6651 20.8685 86.4894 21.1811 86.1768C21.4937 85.8642 21.6693 85.4403 21.6693 84.9982C21.6693 84.5561 21.4937 84.1321 21.1811 83.8195C20.8685 83.5069 20.4445 83.3313 20.0024 83.3313H10.0012V73.3301H20.0024C20.4445 73.3301 20.8685 73.1545 21.1811 72.8419C21.4937 72.5293 21.6693 72.1053 21.6693 71.6632C21.6693 71.2211 21.4937 70.7972 21.1811 70.4846C20.8685 70.172 20.4445 69.9963 20.0024 69.9963H10.0012V59.9951H20.0024C20.4445 59.9951 20.8685 59.8195 21.1811 59.5069C21.4937 59.1943 21.6693 58.7703 21.6693 58.3283C21.6693 57.8862 21.4937 57.4622 21.1811 57.1496C20.8685 56.837 20.4445 56.6614 20.0024 56.6614H10.0012V46.6602H20.0024C20.4445 46.6602 20.8685 46.4845 21.1811 46.1719C21.4937 45.8593 21.6693 45.4354 21.6693 44.9933C21.6693 44.5512 21.4937 44.1272 21.1811 43.8146C20.8685 43.502 20.4445 43.3264 20.0024 43.3264H8.33435C7.89227 43.3264 7.4683 43.502 7.1557 43.8146C6.8431 44.1272 6.66748 44.5512 6.66748 44.9933V83.3313H5.00061C3.67437 83.3313 2.40244 83.8582 1.46465 84.796C0.526849 85.7338 0 87.0057 0 88.3319V91.6657C0 92.1077 0.175616 92.5317 0.488215 92.8443C0.800814 93.1569 1.22479 93.3325 1.66687 93.3325H15.0018C15.4439 93.3325 15.8679 93.1569 16.1805 92.8443C16.4931 92.5317 16.6687 92.1077 16.6687 91.6657C16.6687 91.2236 16.4931 90.7996 16.1805 90.487C15.8679 90.1744 15.4439 89.9988 15.0018 89.9988Z" fill="#F5F6FD"/>
</svg>
