<svg width="100" height="100" viewBox="0 0 100 100" fill="none" xmlns="http://www.w3.org/2000/svg">
<path d="M99.9956 40.0027C99.9962 34.229 98.7469 28.5237 96.3335 23.2787C93.9201 18.0337 90.3998 13.3734 86.0145 9.61786C81.6292 5.86237 76.4828 3.10078 70.929 1.52282C65.3752 -0.0551276 59.5456 -0.412026 53.8408 0.47665C48.136 1.36533 42.6912 3.47851 37.8805 6.671C33.0698 9.8635 29.0073 14.0596 25.9721 18.9711C22.9369 23.8825 21.001 29.3928 20.2973 35.1234C19.5936 40.854 20.1389 46.6689 21.8957 52.1688C21.9497 52.3912 22.049 52.6001 22.1873 52.7824C22.3256 52.9648 22.5 53.1167 22.6996 53.2287C22.8992 53.3407 23.1197 53.4104 23.3474 53.4335C23.5751 53.4565 23.8051 53.4324 24.0231 53.3626C24.2411 53.2929 24.4424 53.179 24.6144 53.028C24.7864 52.8771 24.9255 52.6923 25.023 52.4852C25.1205 52.2781 25.1743 52.0532 25.181 51.8244C25.1878 51.5957 25.1473 51.368 25.0622 51.1555C22.7972 44.0574 22.7507 36.4374 24.929 29.3122C27.1072 22.187 31.4066 15.8955 37.2533 11.2773L43.0364 15.6104L38.4183 29.4698C38.3026 29.8164 38.3041 30.1914 38.4224 30.5371C38.5408 30.8828 38.7695 31.18 39.0733 31.383L47.2162 36.8111L38.9299 43.7158C38.744 43.8712 38.5943 44.0652 38.491 44.2844C38.3878 44.5035 38.3336 44.7425 38.3321 44.9848C38.3307 45.2271 38.3821 45.4667 38.4828 45.6871C38.5834 45.9074 38.7309 46.1032 38.9149 46.2607L46.6929 52.9271C46.8576 53.0792 47.0512 53.1965 47.2622 53.2721C47.4732 53.3476 47.6973 53.3798 47.9211 53.3667C48.1449 53.3537 48.3637 53.2956 48.5645 53.196C48.7653 53.0964 48.9439 52.9573 49.0897 52.787C49.2355 52.6168 49.3455 52.4189 49.413 52.2052C49.4806 51.9914 49.5043 51.7663 49.4828 51.5432C49.4613 51.3201 49.395 51.1036 49.2879 50.9067C49.1808 50.7098 49.0351 50.5365 48.8595 50.3972L42.5798 45.0141L51.0661 37.9428C51.2652 37.7767 51.4228 37.5664 51.5263 37.3287C51.6299 37.091 51.6766 36.8325 51.6626 36.5736C51.6487 36.3147 51.5746 36.0626 51.4462 35.8374C51.3177 35.6121 51.1385 35.42 50.9227 35.2762L41.9815 29.3231L46.5779 15.5304C46.6886 15.1988 46.6921 14.8407 46.588 14.5069C46.4839 14.1731 46.2775 13.8805 45.998 13.6705L40.0882 9.23904C43.3947 7.08472 47.029 5.4817 50.8494 4.49258L53.1976 11.5423L50.1644 17.592C50.048 17.8253 49.9879 18.0827 49.9891 18.3435C49.9902 18.6043 50.0526 18.8612 50.1711 19.0935C50.2896 19.3258 50.4609 19.527 50.6714 19.681C50.8818 19.835 51.1255 19.9375 51.3827 19.9802L61.3823 21.6468C61.4752 21.6633 61.5695 21.6711 61.6639 21.6701C61.99 21.6701 62.309 21.5744 62.5812 21.3949C62.8534 21.2154 63.067 20.9599 63.1955 20.6602L68.1953 8.99405C68.2852 8.79232 68.3341 8.57473 68.3392 8.35393C68.3443 8.13313 68.3054 7.91352 68.2249 7.70787C68.1444 7.50222 68.0238 7.31463 67.8701 7.156C67.7164 6.99736 67.5328 6.87086 67.3298 6.78383C67.1268 6.6968 66.9085 6.65099 66.6877 6.64906C66.4668 6.64712 66.2478 6.6891 66.0433 6.77256C65.8388 6.85602 65.653 6.97928 65.4965 7.1352C65.3401 7.29111 65.2162 7.47656 65.1321 7.68077L60.6473 18.1453L54.1643 17.0637L56.4975 12.4156C56.6943 12.0201 56.726 11.5628 56.5858 11.144L54.1426 3.81094C62.061 2.52569 70.1823 3.88207 77.2532 7.67077L71.9451 17.402L63.7155 27.2699C63.5471 27.4723 63.4291 27.7117 63.3711 27.9685C63.3131 28.2254 63.3168 28.4923 63.3818 28.7474C63.4469 29.0025 63.5714 29.2386 63.7453 29.4363C63.9192 29.634 64.1374 29.7877 64.3821 29.8848L71.2552 32.633L68.422 41.1426C68.3463 41.3671 68.3194 41.605 68.343 41.8407C68.3666 42.0764 68.4401 42.3043 68.5587 42.5093C68.6773 42.7143 68.8382 42.8917 69.0307 43.0296C69.2233 43.1675 69.443 43.2628 69.6752 43.3092L84.2029 46.2157L78.5098 57.5969C78.3315 57.9545 78.2875 58.3643 78.386 58.7516C78.4846 59.1389 78.7189 59.4779 79.0465 59.7068L86.7128 65.0799C83.7256 68.2614 80.1971 70.8871 76.2916 72.8345L69.1886 68.5731C68.8604 68.3744 68.4733 68.296 68.0936 68.3514L56.4275 70.018C56.0921 70.0658 55.7792 70.2148 55.5306 70.4449C55.282 70.6751 55.1094 70.9755 55.0359 71.3063L53.8026 76.8577C53.558 77.1044 53.3981 77.4225 53.346 77.766C53.2882 78.204 53.4068 78.647 53.6755 78.9976C53.9443 79.3483 54.3413 79.5778 54.7792 79.6359H54.8542C54.8676 79.6359 54.8759 79.6492 54.8892 79.6509C55.0078 79.6781 55.1292 79.6915 55.2509 79.6909C55.2692 79.6909 55.2859 79.6909 55.3042 79.6909C56.3575 79.8176 57.3608 79.8976 58.3307 79.9426V83.3341H56.6641C56.2221 83.3341 55.7982 83.5097 55.4857 83.8222C55.1731 84.1348 54.9976 84.5587 54.9976 85.0007V90.0004H49.9978V58.3352C49.9978 57.8932 49.8222 57.4693 49.5096 57.1567C49.1971 56.8442 48.7732 56.6686 48.3312 56.6686H39.9982C39.5562 56.6686 39.1323 56.8442 38.8198 57.1567C38.5072 57.4693 38.3316 57.8932 38.3316 58.3352C38.3316 58.7772 38.5072 59.2011 38.8198 59.5136C39.1323 59.8262 39.5562 60.0018 39.9982 60.0018H46.6646V70.0013H3.33319V60.0018H33.3319C33.7739 60.0018 34.1978 59.8262 34.5103 59.5136C34.8229 59.2011 34.9984 58.7772 34.9984 58.3352V48.3356C34.9984 47.8936 34.8229 47.4697 34.5103 47.1572C34.1978 46.8446 33.7739 46.669 33.3319 46.669C32.8898 46.669 32.4659 46.8446 32.1534 47.1572C31.8408 47.4697 31.6653 47.8936 31.6653 48.3356V56.6686H1.66659C1.22458 56.6686 0.80068 56.8442 0.488134 57.1567C0.175587 57.4693 0 57.8932 0 58.3352V98.3334C0 98.7754 0.175587 99.1993 0.488134 99.5119C0.80068 99.8244 1.22458 100 1.66659 100H8.33296C8.77497 100 9.19887 99.8244 9.51142 99.5119C9.82397 99.1993 9.99956 98.7754 9.99956 98.3334C9.99956 97.8914 9.82397 97.4675 9.51142 97.1549C9.19887 96.8424 8.77497 96.6668 8.33296 96.6668H3.33319V86.6673H46.6646V96.6668H14.9993C14.5573 96.6668 14.1334 96.8424 13.8209 97.1549C13.5083 97.4675 13.3327 97.8914 13.3327 98.3334C13.3327 98.7754 13.5083 99.1993 13.8209 99.5119C14.1334 99.8244 14.5573 100 14.9993 100H79.9964C80.4385 100 80.8624 99.8244 81.1749 99.5119C81.4874 99.1993 81.663 98.7754 81.663 98.3334V96.6668H89.996C90.438 96.6668 90.8619 96.4912 91.1745 96.1787C91.487 95.8661 91.6626 95.4422 91.6626 95.0002V64.3983C97.0707 57.4165 100.002 48.834 99.9956 40.0027ZM88.1628 45.7474C88.2771 45.5181 88.337 45.2654 88.3378 45.0092C88.3387 44.7529 88.2804 44.4999 88.1675 44.2698C88.0546 44.0397 87.8903 43.8388 87.6871 43.6826C87.4839 43.5264 87.2475 43.4191 86.9961 43.3692L72.1818 40.406L74.9167 32.1963C75.0513 31.7931 75.0267 31.3536 74.8479 30.9679C74.6691 30.5822 74.3497 30.2794 73.955 30.1214L67.752 27.6416L74.6183 19.4036C74.6872 19.32 74.748 19.2302 74.8 19.1353L80.1331 9.37403C87.9797 14.5172 93.5512 22.4776 95.6968 31.611C97.8424 40.7443 96.3982 50.3528 91.6626 58.4518V53.3354C91.6626 52.8934 91.487 52.4695 91.1745 52.1569C90.8619 51.8444 90.438 51.6688 89.996 51.6688C89.554 51.6688 89.1301 51.8444 88.8175 52.1569C88.505 52.4695 88.3294 52.8934 88.3294 53.3354V62.1334L82.1297 57.8002L88.1628 45.7474ZM67.9803 71.7346L72.5251 74.4611C68.5106 75.9245 64.2702 76.6714 59.9973 76.6677C59.129 76.6677 58.2224 76.6194 57.2891 76.5427L58.0408 73.1545L67.9803 71.7346ZM3.33319 83.3341V73.3345H46.6646V83.3341H3.33319ZM78.3298 96.6668H49.9978V93.3336H56.6641C57.1062 93.3336 57.5301 93.158 57.8426 92.8455C58.1552 92.533 58.3307 92.109 58.3307 91.667V86.6673H61.6639V91.667C61.6639 92.109 61.8395 92.533 62.1521 92.8455C62.4646 93.158 62.8885 93.3336 63.3305 93.3336H78.3298V96.6668ZM88.3294 93.3336H81.663V91.667C81.663 91.225 81.4874 90.8011 81.1749 90.4886C80.8624 90.176 80.4385 90.0004 79.9964 90.0004H64.9971V85.0007C64.9971 84.5587 64.8215 84.1348 64.509 83.8222C64.1964 83.5097 63.7725 83.3341 63.3305 83.3341H61.6639V79.9592C71.7168 79.5458 81.2418 75.3476 88.3294 68.2064V93.3336Z" fill="#F5F6FD"/>
<path d="M26.6655 93.3337C27.5859 93.3337 28.3321 92.5875 28.3321 91.6671C28.3321 90.7466 27.5859 90.0005 26.6655 90.0005C25.745 90.0005 24.9989 90.7466 24.9989 91.6671C24.9989 92.5875 25.745 93.3337 26.6655 93.3337Z" fill="#F5F6FD"/>
<path d="M33.3318 93.3337C34.2523 93.3337 34.9984 92.5875 34.9984 91.6671C34.9984 90.7466 34.2523 90.0005 33.3318 90.0005C32.4114 90.0005 31.6653 90.7466 31.6653 91.6671C31.6653 92.5875 32.4114 93.3337 33.3318 93.3337Z" fill="#F5F6FD"/>
<path d="M39.9982 93.3337C40.9187 93.3337 41.6648 92.5875 41.6648 91.6671C41.6648 90.7466 40.9187 90.0005 39.9982 90.0005C39.0778 90.0005 38.3316 90.7466 38.3316 91.6671C38.3316 92.5875 39.0778 93.3337 39.9982 93.3337Z" fill="#F5F6FD"/>
<path d="M19.9991 91.6671C19.9991 91.2251 19.8235 90.8012 19.511 90.4886C19.1984 90.1761 18.7745 90.0005 18.3325 90.0005H8.33296C7.89095 90.0005 7.46705 90.1761 7.1545 90.4886C6.84195 90.8012 6.66637 91.2251 6.66637 91.6671C6.66637 92.1091 6.84195 92.533 7.1545 92.8455C7.46705 93.1581 7.89095 93.3337 8.33296 93.3337H18.3325C18.7745 93.3337 19.1984 93.1581 19.511 92.8455C19.8235 92.533 19.9991 92.1091 19.9991 91.6671Z" fill="#F5F6FD"/>
<path d="M26.6655 80.0009C27.5859 80.0009 28.3321 79.2548 28.3321 78.3343C28.3321 77.4139 27.5859 76.6677 26.6655 76.6677C25.745 76.6677 24.9989 77.4139 24.9989 78.3343C24.9989 79.2548 25.745 80.0009 26.6655 80.0009Z" fill="#F5F6FD"/>
<path d="M33.3318 80.0009C34.2523 80.0009 34.9984 79.2548 34.9984 78.3343C34.9984 77.4139 34.2523 76.6677 33.3318 76.6677C32.4114 76.6677 31.6653 77.4139 31.6653 78.3343C31.6653 79.2548 32.4114 80.0009 33.3318 80.0009Z" fill="#F5F6FD"/>
<path d="M39.9982 80.0009C40.9187 80.0009 41.6648 79.2548 41.6648 78.3343C41.6648 77.4139 40.9187 76.6677 39.9982 76.6677C39.0778 76.6677 38.3316 77.4139 38.3316 78.3343C38.3316 79.2548 39.0778 80.0009 39.9982 80.0009Z" fill="#F5F6FD"/>
<path d="M18.3325 76.6677H8.33296C7.89095 76.6677 7.46705 76.8433 7.1545 77.1559C6.84195 77.4684 6.66637 77.8923 6.66637 78.3343C6.66637 78.7763 6.84195 79.2002 7.1545 79.5128C7.46705 79.8253 7.89095 80.0009 8.33296 80.0009H18.3325C18.7745 80.0009 19.1984 79.8253 19.511 79.5128C19.8235 79.2002 19.9991 78.7763 19.9991 78.3343C19.9991 77.8923 19.8235 77.4684 19.511 77.1559C19.1984 76.8433 18.7745 76.6677 18.3325 76.6677Z" fill="#F5F6FD"/>
<path d="M26.6655 66.6681C27.5859 66.6681 28.3321 65.922 28.3321 65.0016C28.3321 64.0811 27.5859 63.335 26.6655 63.335C25.745 63.335 24.9989 64.0811 24.9989 65.0016C24.9989 65.922 25.745 66.6681 26.6655 66.6681Z" fill="#F5F6FD"/>
<path d="M33.3318 66.6681C34.2523 66.6681 34.9984 65.922 34.9984 65.0016C34.9984 64.0811 34.2523 63.335 33.3318 63.335C32.4114 63.335 31.6653 64.0811 31.6653 65.0016C31.6653 65.922 32.4114 66.6681 33.3318 66.6681Z" fill="#F5F6FD"/>
<path d="M39.9982 66.6681C40.9187 66.6681 41.6648 65.922 41.6648 65.0016C41.6648 64.0811 40.9187 63.335 39.9982 63.335C39.0778 63.335 38.3316 64.0811 38.3316 65.0016C38.3316 65.922 39.0778 66.6681 39.9982 66.6681Z" fill="#F5F6FD"/>
<path d="M8.33296 63.335C7.89095 63.335 7.46705 63.5105 7.1545 63.8231C6.84195 64.1356 6.66637 64.5595 6.66637 65.0016C6.66637 65.4436 6.84195 65.8675 7.1545 66.18C7.46705 66.4926 7.89095 66.6681 8.33296 66.6681H18.3325C18.7745 66.6681 19.1984 66.4926 19.511 66.18C19.8235 65.8675 19.9991 65.4436 19.9991 65.0016C19.9991 64.5595 19.8235 64.1356 19.511 63.8231C19.1984 63.5105 18.7745 63.335 18.3325 63.335H8.33296Z" fill="#F5F6FD"/>
</svg>
